<?xml version="1.0" encoding="UTF-8"?>
<svg width="250" height="250" version="1.1" viewBox="0 0 66.146 66.146" xmlns="http://www.w3.org/2000/svg">
 <path d="m43.128 0.36594c-1.5216 0.27792-2.008 0.49331-2.7167 1.202-1.8899 1.8899-3.6616 6.7465-4.4398 12.152-0.27792 1.9871-0.38909 3.5087-0.43078 6.0726l-0.04169 2.4388-1.3271 1.3132c-0.72954 0.71564-1.7926 1.7578-2.3693 2.3067-0.56974 0.55584-1.7648 1.7231-2.6472 2.5986l-1.605 1.5911-0.08338-0.72259c-0.40298-3.5296-0.75733-7.1704-0.95187-9.8175-0.14591-2.0636-0.20149-5.9197-0.10422-7.2954 0.24318-3.3142 0.80597-5.8641 1.6536-7.49 0.43078-0.82681 1.202-1.6397 1.7162-1.8065 0.50026-0.16675 1.07-0.14591 1.6536 0.055586 1.334 0.46552 1.9177 1.0908 2.6264 2.8278 0.43078 1.0561 0.49331 1.1534 0.61142 1.0144 0.05559-0.069478 0.05559-0.29182 0.01391-0.77123-0.18066-1.8899-0.9102-3.2934-2.1539-4.148-0.83376-0.56974-1.7092-0.90324-2.3693-0.90324-0.49331 0-1.6397 0.31961-2.0636 0.56974-1.4521 0.87545-2.9182 3.7033-3.6616 7.0592-0.51415 2.3623-0.66701 3.9117-0.7087 7.3024-0.05559 4.2036 0.22234 8.6503 0.92409 15.14l0.1876 1.6884-0.37519 0.39604c-0.20844 0.21539-0.84766 0.89629-1.4243 1.5077-3.2934 3.4879-5.218 5.9614-6.6493 8.5391-1.1812 2.1261-2.008 4.4676-2.411 6.8021-0.36824 2.1539-0.28487 4.8984 0.21539 6.8924 0.58363 2.3415 2.0775 5.2735 3.3767 6.6006 0.63227 0.65312 1.6536 1.4382 2.2651 1.737 1.9941 0.97967 4.1688 0.55584 5.8363-1.1256 0.63227-0.63922 1.0144-1.1951 1.5425-2.2442 1.5911-3.1613 2.2025-7.1078 2.0983-13.444-0.06253-3.5991-0.32656-6.6562-1.1325-13.264l-0.25708-2.0775 1.5911-1.5772c0.87545-0.86156 2.6055-2.5499 3.8492-3.745l2.2581-2.1747 0.04864 0.43773c0.02779 0.24318 0.11812 1.2576 0.19454 2.2512 0.1737 2.1052 0.45162 4.6552 0.80597 7.3093l0.25013 1.8829-1.0769 1.2784c-4.1341 4.8775-5.7808 7.1773-5.9267 8.2751-0.04169 0.26403-0.02779 0.32656 0.05559 0.32656 0.06253 0 0.16675-0.08337 0.22928-0.19454 0.29876-0.45162 0.95883-1.1256 3.0154-3.0571 1.202-1.1395 2.6125-2.4665 3.1336-2.9529 0.77818-0.73649 0.94493-0.8685 0.98662-0.76428 0.02779 0.06948 0.11117 0.56279 0.19454 1.0978 0.07643 0.535 0.30571 1.9524 0.49331 3.1475l0.35435 2.1747-0.30571 0.34046c-0.1598 0.1876-0.92409 1.0353-1.6884 1.8899-3.0502 3.3906-5.9336 7.0105-7.0522 8.8448-0.41688 0.68091-0.90324 1.6675-0.90324 1.8412 0 0.07642 0.04169 0.13896 0.09032 0.13896 0.04864 0 0.535-0.45857 1.0908-1.0144 1.4452-1.4591 4.3008-4.1063 8.4766-7.8652l0.8685-0.77818 0.19454 1.0908c0.65311 3.7241 1.4174 7.1356 2.14 9.5257 0.44467 1.473 0.68785 2.0914 1.4799 3.7311 0.49331 1.0214 0.68785 1.341 0.82681 1.4174 0.25013 0.13202 0.3474 0.04169 0.54195-0.51415 0.13896-0.38214 0.14591-0.50721 0.10422-1.5633-0.05559-1.5286-0.1598-2.1886-0.6948-4.412-0.61143-2.5499-1.063-4.808-1.6328-8.2334-0.26402-1.5841-0.49331-2.9599-0.50026-3.0571-0.02084-0.14591 0.13201-0.31961 0.91019-1.0422 0.51415-0.47941 1.5703-1.473 2.3554-2.2095 0.77818-0.73649 2.4665-2.3206 3.7519-3.5157 2.536-2.3623 3.877-3.7102 3.9465-3.9882 0.02084-0.09727 7e-3 -0.22928-0.04169-0.29876-0.04169-0.06948-0.07643-0.1737-0.07643-0.22234 0-0.13896-0.19454-0.29182-0.71565-0.56279-0.39603-0.20149-0.5072-0.22929-0.68785-0.1737-1.1256 0.31961-5.9683 4.1827-9.3451 7.4483-0.6948 0.67396-0.70175 0.6809-0.74344 0.48636-0.04169-0.22234-0.42383-2.7236-0.73649-4.8428l-0.20844-1.4521 1.0561-1.0839c3.0432-3.0988 6.8091-7.2746 7.1842-7.9624 0.10422-0.20149 0.10422-0.22928-0.01388-0.47941-0.09727-0.19454-0.23623-0.32656-0.5072-0.47941l-0.38214-0.20844-0.27792 0.15286c-0.72259 0.38909-3.4115 2.8139-5.8224 5.2458-1.466 1.473-1.6536 1.6397-1.6814 1.4938-0.05559-0.24318-0.3613-2.8695-0.5211-4.4745-0.20844-2.0427-0.34045-3.6894-0.43078-5.5028l-0.09032-1.6189 0.3474-0.37519c0.1876-0.20844 0.75039-0.82681 1.2506-1.3757 2.4596-2.675 4.1132-4.9609 5.3013-7.3302 1.5702-3.1405 2.2373-5.9128 2.0288-8.414-0.10423-1.1951-0.29182-1.9315-0.7087-2.7653-0.49331-1.0075-0.98662-1.5286-1.8204-1.9385-0.6948-0.33351-1.07-0.40993-1.6119-0.30571zm0.85461 2.939c0.21539 0.11117 0.51415 0.42383 0.63227 0.64617 0.40298 0.79207 0.5211 2.946 0.22928 4.3773-0.43078 2.133-1.6675 4.7733-3.3003 7.0383-0.89629 1.2506-3.1405 3.9465-3.2169 3.87-0.04169-0.04169 0.10422-2.4874 0.21539-3.6616 0.22234-2.2512 0.7087-4.8706 1.2576-6.7882 0.55584-1.9385 1.0353-3.0849 1.7301-4.1271 0.45857-0.68785 0.84071-1.0769 1.2854-1.3132 0.29182-0.1598 0.90324-0.18065 1.1673-0.041686zm-18.69 33.371c0.80597 7.1495 1.07 11.416 0.92409 14.987-0.1876 4.5996-0.66006 7.0453-1.7023 8.824-0.38214 0.64617-1.1395 1.4452-1.7717 1.8621-0.47247 0.30572-0.54195 0.33351-0.93798 0.33351-0.52805 0-1.1325-0.15285-1.598-0.40299-0.46552-0.24318-1.737-1.5147-2.14-2.133-1.6675-2.543-2.4388-6.0587-2.0358-9.1853 0.55584-4.2522 2.3693-7.615 6.7048-12.458 1.0144-1.1325 2.3693-2.5708 2.4249-2.5708 0.02779 0 0.08338 0.33351 0.13201 0.74344z"/>
</svg>
