<?xml version="1.0" encoding="UTF-8"?>
<svg width="250" height="250" version="1.1" viewBox="0 0 66.146 66.146" xmlns="http://www.w3.org/2000/svg">
 <path d="m45.697 0.27752c-1.5248 0.2785-2.0122 0.49434-2.7224 1.2045-1.8938 1.8938-3.6693 6.7607-4.4491 12.178-0.2785 1.9913-0.3899 3.5161-0.43168 6.0853l-0.04177 2.4439-1.3299 1.3159c-0.73107 0.71715-1.7963 1.7615-2.3742 2.3116-0.57093 0.55701-1.7685 1.7267-2.6527 2.604l-1.6084 1.5944-0.08355-0.72411c-0.40383-3.537-0.75892-7.1854-0.95387-9.8381-0.14622-2.0679-0.20192-5.9321-0.10444-7.3107 0.24369-3.3212 0.80766-5.8764 1.6571-7.5057 0.43168-0.82855 1.2045-1.6432 1.7198-1.8103 0.50131-0.1671 1.0722-0.14621 1.6571 0.055696 1.3368 0.46649 1.9217 1.0931 2.6319 2.8338 0.43168 1.0583 0.49434 1.1558 0.61271 1.0165 0.0557-0.06962 0.0557-0.29243 0.01393-0.77285-0.18104-1.8938-0.91211-3.3003-2.1584-4.1567-0.83551-0.57093-1.7128-0.90514-2.3742-0.90514-0.49434 0-1.6432 0.32028-2.0679 0.57093-1.4552 0.87728-2.9243 3.7111-3.6693 7.074-0.51523 2.3673-0.66841 3.9199-0.71018 7.3177-0.0557 4.2124 0.2228 8.6684 0.92602 15.171l0.18799 1.6919-0.37598 0.39687c-0.20888 0.21584-0.84944 0.89817-1.4273 1.5109-3.3003 3.4952-5.2289 5.9739-6.6632 8.557-1.1836 2.1306-2.0122 4.4769-2.416 6.8164-0.36902 2.1584-0.28547 4.9086 0.21584 6.9069 0.58486 2.3464 2.0818 5.2846 3.3838 6.6145 0.63359 0.65449 1.6571 1.4413 2.2698 1.7406 1.9983 0.98173 4.1776 0.557 5.8486-1.1279 0.63359-0.64056 1.0165-1.1976 1.5457-2.2489 1.5944-3.168 2.2071-7.1227 2.1027-13.473-0.06266-3.6066-0.32724-6.6702-1.1349-13.292l-0.25762-2.0818 1.5944-1.5805c1.9913-1.9704 6.0992-5.9252 6.1271-5.8973 0.01393 7e-3 0.08355 0.84944 0.1671 1.859 0.38294 4.9156 1.114 10.374 2.4717 18.632 1.3229 7.9861 2.0331 11.446 3.0357 14.789 0.44561 1.4621 0.6893 2.0888 1.483 3.725 0.49434 1.0235 0.6893 1.3438 0.82855 1.4204 0.25065 0.13229 0.34813 0.04177 0.54308-0.51523 0.13925-0.38295 0.14621-0.50827 0.10444-1.5666-0.055706-1.5318-0.16014-2.1932-0.69626-4.4212-0.82159-3.3977-1.3368-6.2176-2.4439-13.229-1.3159-8.3481-2.0052-13.41-2.4021-17.755-0.14622-1.6362-0.34813-4.6858-0.34813-5.3333v-0.39687l0.71715-0.75892c3.5509-3.7737 5.3821-6.3847 6.8512-9.7685 1.0513-2.416 1.5248-4.8599 1.3507-6.9487-0.10444-1.1976-0.29243-1.9356-0.71018-2.7711-0.49434-1.0096-0.98869-1.5318-1.8242-1.9426-0.69626-0.3342-1.0722-0.41079-1.6153-0.30635zm0.8564 2.9452c0.21584 0.1114 0.51523 0.42472 0.6336 0.64752 0.40383 0.79374 0.52219 2.9521 0.22976 4.3864-0.43168 2.1375-1.671 4.7833-3.3072 7.0531-0.89817 1.2533-3.1471 3.9547-3.2237 3.8782-0.04177-0.04177 0.10444-2.4926 0.21584-3.6693 0.2228-2.2559 0.71018-4.8808 1.2602-6.8024 0.55701-1.9426 1.0374-3.0914 1.7337-4.1358 0.45953-0.6893 0.84247-1.0792 1.2881-1.3159 0.29243-0.16014 0.90514-0.18103 1.1697-0.041772zm-18.729 33.441c0.80766 7.1645 1.0722 11.44 0.92602 15.018-0.18799 4.6092-0.66145 7.0601-1.7058 8.8425-0.38294 0.64752-1.1419 1.4482-1.7755 1.866-0.47346 0.30636-0.54308 0.33421-0.93995 0.33421-0.52916 0-1.1349-0.15318-1.6014-0.40383-0.46649-0.24369-1.7406-1.5178-2.1445-2.1375-1.671-2.5483-2.4439-6.0714-2.04-9.2045 0.55701-4.2611 2.3742-7.631 6.7189-12.484 1.0165-1.1349 2.3742-2.5762 2.4299-2.5762 0.02785 0 0.08355 0.3342 0.13229 0.745z"/>
</svg>
