<?xml version="1.0" encoding="UTF-8"?>
<svg width="250" height="250" version="1.1" viewBox="0 0 66.146 66.146" xmlns="http://www.w3.org/2000/svg">
 <circle cx="33.073" cy="33.073" r="33.073" fill="#fff" fill-rule="evenodd" stroke-width=".2645"/>
 <path d="m39.045 7.6583c-1.138 0.20786-1.5018 0.36895-2.0318 0.89899-1.4134 1.4134-2.7385 5.0458-3.3205 9.0886-0.20786 1.4862-0.291 2.6242-0.32218 4.5417l-0.03118 1.824-0.99252 0.98213c-0.54562 0.53524-1.3407 1.3147-1.772 1.7252-0.42611 0.41572-1.3199 1.2887-1.9798 1.9435l-1.2004 1.19-0.06235-0.54043c-0.30139-2.6398-0.56641-5.3627-0.71191-7.3426-0.10912-1.5433-0.1507-4.4274-0.07795-5.4563 0.18188-2.4787 0.60279-4.3858 1.2368-5.6018 0.32218-0.61838 0.89898-1.2264 1.2835-1.3511 0.37414-0.12472 0.80025-0.10912 1.2368 0.041576 0.99771 0.34816 1.4342 0.81584 1.9642 2.115 0.32218 0.78986 0.36895 0.86261 0.45729 0.75868 0.04157-0.05197 0.04157-0.21825 0.01041-0.57681-0.13511-1.4134-0.68074-2.4631-1.6109-3.1023-0.62357-0.42611-1.2783-0.67554-1.772-0.67554-0.36894 0-1.2264 0.23904-1.5433 0.42611-1.0861 0.65475-2.1825 2.7697-2.7385 5.2796-0.38454 1.7668-0.49886 2.9256-0.53004 5.4615-0.04157 3.1439 0.16629 6.4696 0.69113 11.323l0.1403 1.2627-0.28061 0.2962c-0.15589 0.16109-0.63397 0.67034-1.0653 1.1276-2.4631 2.6086-3.9025 4.4586-4.973 6.3864-0.8834 1.5901-1.5018 3.3413-1.8032 5.0873-0.27541 1.6109-0.21306 3.6635 0.16109 5.1549 0.4365 1.7512 1.5537 3.9441 2.5255 4.9366 0.47288 0.48847 1.2368 1.0757 1.694 1.2991 1.4914 0.7327 3.1179 0.41571 4.365-0.84182 0.47288-0.47808 0.75868-0.89379 1.1536-1.6785 1.19-2.3644 1.6473-5.316 1.5693-10.055-0.04677-2.6918-0.24423-4.9782-0.84702-9.92l-0.19228-1.5537 1.19-1.1796c1.4862-1.4706 4.5521-4.4222 4.5729-4.4014 0.01041 0.0052 0.06235 0.63397 0.12471 1.3875 0.12991 1.6888 0.30659 3.3673 0.55082 5.2484 0.18188 1.4238 0.61837 4.4949 0.67034 4.7132 0.03118 0.13511 0.09873 0.11952-1.0133 0.27541-0.85221 0.11432-1.7096 0.31179-2.0162 0.45729-0.10393 0.04677-0.21825 0.1455-0.25982 0.21825-0.10913 0.20786-0.04157 0.59759 0.16628 0.93016 0.09354 0.16109 0.19227 0.34296 0.20786 0.40532 0.03638 0.10913 0.36895 0.41052 0.5768 0.52484 0.07274 0.03638 0.34296 0.03118 0.93536-0.01558 0.45728-0.03638 1.0549-0.08314 1.3251-0.09873l0.49886-0.02599 0.19227 1.2056c0.10912 0.66514 0.20786 1.2887 0.22344 1.3978l0.03118 0.18707-0.27541 0.03118c-1.8291 0.20786-3.201 0.34297-3.492 0.34297-0.48327 0-1.0757 0.1351-1.1952 0.27541-0.12991 0.1507-0.07795 0.38454 0.17148 0.81584 0.21305 0.35856 0.47287 0.60279 0.74309 0.68593 0.19227 0.05716 2.063 0.06756 3.466 0.01558l0.96134-0.03638 0.09354 0.56122c0.36375 2.1669 1.0289 5.1029 1.5485 6.8281 0.33257 1.0913 0.51445 1.5589 1.1068 2.7801 0.36895 0.76388 0.51445 1.0029 0.61838 1.0601 0.18708 0.09874 0.25982 0.03118 0.40532-0.38453 0.10393-0.28581 0.10912-0.37934 0.07795-1.1692-0.04157-1.1432-0.11952-1.6369-0.51964-3.2997-0.38454-1.6005-0.76908-3.466-1.0601-5.1757l-0.20266-1.1744 0.96654-0.03638c1.3043-0.04677 3.0919-0.1559 6.2669-0.36895 3.9857-0.27022 5.4719-0.34816 6.4176-0.32738l0.85742 0.01558v-0.12471c0-0.09873-0.04157-0.1403-0.20786-0.19746-1.5849-0.55602-4.2351-0.90938-9.2497-1.2212-0.57161-0.03638-2.0266-0.06756-3.2322-0.06756-1.2108 0-2.1981-0.01037-2.1981-0.02599 0-0.01558-0.09353-0.61318-0.20786-1.3251-0.11432-0.71711-0.20786-1.3251-0.20786-1.3511 0-0.03118 0.20266-0.08834 0.45728-0.12472 1.429-0.20266 3.57-0.65995 5.0198-1.0653 0.67554-0.19227 0.78466-0.23904 0.80026-0.33257 0.02078-0.1455-0.17668-0.24423-0.79506-0.40013-1.0341-0.26502-3.5024-0.57161-5.0769-0.63397-0.45209-0.01558-0.82103-0.04677-0.82103-0.06756 0-0.02078-0.12991-0.93536-0.2858-2.0318-0.60799-4.3027-0.91978-7.2231-1.0705-10.112l-0.06756-1.2108 0.25982-0.28061c0.1403-0.15589 0.56122-0.61838 0.93536-1.0289 1.8395-2.0006 3.0763-3.7103 3.9649-5.4823 1.1744-2.3488 1.6733-4.4222 1.5174-6.2929-0.077948-0.89378-0.21825-1.4446-0.53004-2.0682-0.36895-0.75349-0.7379-1.1432-1.3615-1.4498-0.51965-0.24942-0.80026-0.30658-1.2056-0.22863zm0.63916 2.1981c0.16109 0.083144 0.38454 0.31698 0.47288 0.48327 0.30139 0.5924 0.38973 2.2033 0.17148 3.2738-0.32218 1.5953-1.2471 3.57-2.4683 5.264-0.67034 0.93536-2.3488 2.9516-2.4059 2.8944-0.03118-0.03118 0.07795-1.8603 0.16109-2.7385 0.16629-1.6836 0.53004-3.6427 0.94055-5.0769 0.41571-1.4498 0.77427-2.3072 1.2939-3.0867 0.34297-0.51445 0.62877-0.80545 0.96134-0.98213 0.21825-0.11952 0.67554-0.13511 0.873-0.031178zm-13.978 24.959c0.60279 5.3472 0.80025 8.5378 0.69113 11.209-0.1403 3.4401-0.49366 5.2692-1.2731 6.5995-0.2858 0.48327-0.85222 1.0809-1.3251 1.3926-0.35336 0.22864-0.40532 0.24943-0.70152 0.24943-0.39493 0-0.84702-0.11432-1.1952-0.30139-0.34816-0.18188-1.2991-1.1328-1.6005-1.5953-1.2471-1.9019-1.824-4.5313-1.5226-6.8697 0.41572-3.1802 1.772-5.6953 5.0146-9.3172 0.75868-0.84702 1.772-1.9227 1.8136-1.9227 0.02079 0 0.06235 0.24943 0.09873 0.55602z"/>
</svg>
