<?xml version="1.0" encoding="UTF-8"?>
<svg width="250" height="250" version="1.1" viewBox="0 0 66.146 66.146" xmlns="http://www.w3.org/2000/svg">
 <path d="m38.764 0.43012c-1.5204 0.27769-2.0063 0.49291-2.7145 1.201-1.8883 1.8883-3.6586 6.741-4.4362 12.142-0.2777 1.9855-0.38877 3.5059-0.43042 6.0676l-0.04165 2.4368-1.326 1.3121c-0.72894 0.71506-1.7911 1.7564-2.3673 2.3049-0.56927 0.55539-1.7634 1.7217-2.645 2.5964l-1.6037 1.5898-0.0833-0.72201c-0.40266-3.5267-0.75672-7.1645-0.9511-9.8096-0.14579-2.0619-0.20133-5.9149-0.10414-7.2895 0.24298-3.3115 0.80532-5.8594 1.6523-7.4839 0.43042-0.82614 1.201-1.6384 1.7148-1.805 0.49985-0.16662 1.0691-0.14579 1.6523 0.055539 1.3329 0.46514 1.9161 1.09 2.6242 2.8255 0.43042 1.0552 0.49291 1.1524 0.61093 1.0136 0.05554-0.069424 0.05554-0.29158 0.0139-0.7706-0.18052-1.8883-0.90946-3.2907-2.1521-4.1446-0.83308-0.56928-1.7078-0.90251-2.3673-0.90251-0.4929 0-1.6384 0.31935-2.0619 0.56927-1.451 0.87474-2.9158 3.7003-3.6586 7.0535-0.51374 2.3604-0.66647 3.9086-0.70812 7.2964-0.05554 4.2001 0.22216 8.6433 0.92334 15.127l0.18744 1.687-0.37489 0.39572c-0.20827 0.21521-0.84697 0.89556-1.4232 1.5065-3.2907 3.4851-5.2137 5.9566-6.6438 8.5322-1.1802 2.1244-2.0063 4.4639-2.409 6.7966-0.36794 2.1521-0.28464 4.8944 0.21521 6.8868 0.58316 2.3396 2.0758 5.2693 3.374 6.5953 0.63176 0.65259 1.6523 1.4371 2.2632 1.7356 1.9925 0.97888 4.1654 0.55539 5.8316-1.1247 0.63176-0.6387 1.0136-1.1941 1.5412-2.2424 1.5898-3.1588 2.2007-7.102 2.0966-13.433-0.06248-3.5961-0.32629-6.6508-1.1316-13.253l-0.25688-2.0758 1.5898-1.5759c1.9855-1.9647 6.0815-5.908 6.1093-5.8802 0.0139 7e-3 0.0833 0.84697 0.16662 1.8536 0.17356 2.2563 0.4096 4.4987 0.73589 7.0118 0.24298 1.9022 0.82614 6.0052 0.89556 6.2967 0.04165 0.1805 0.1319 0.15967-1.3538 0.36795-1.1385 0.15273-2.284 0.41654-2.6936 0.61093-0.13885 0.06249-0.29158 0.19439-0.34712 0.29158-0.14579 0.2777-0.05554 0.79837 0.22215 1.2427 0.12496 0.21521 0.25687 0.4582 0.27769 0.5415 0.0486 0.14579 0.49291 0.54845 0.7706 0.70118 0.09719 0.0486 0.4582 0.04165 1.2496-0.02082 0.61092-0.0486 1.4093-0.11108 1.7703-0.1319l0.66646-0.03472 0.25686 1.6106c0.14579 0.88862 0.27769 1.7217 0.29852 1.8675l0.04165 0.24992-0.36795 0.04165c-2.4437 0.2777-4.2765 0.4582-4.6652 0.4582-0.64564 0-1.4371 0.1805-1.5967 0.36794-0.17356 0.20133-0.10413 0.51374 0.2291 1.09 0.28464 0.47903 0.63175 0.80532 0.99275 0.9164 0.25687 0.07636 2.7561 0.09025 4.6305 0.02082l1.2843-0.0486 0.12496 0.74978c0.48596 2.895 1.3746 6.8174 2.0688 9.1223 0.44431 1.4579 0.68729 2.0827 1.4787 3.7142 0.49291 1.0205 0.6873 1.3399 0.82614 1.4162 0.24993 0.13191 0.34712 0.04165 0.54151-0.51373 0.13884-0.38183 0.14579-0.5068 0.10414-1.562-0.05554-1.5273-0.15967-2.1868-0.69424-4.4084-0.51374-2.1383-1.0275-4.6306-1.4162-6.9146l-0.27075-1.569 1.2913-0.0486c1.7425-0.06248 4.1307-0.20827 8.3725-0.49291 5.3248-0.361 7.3103-0.46514 8.5738-0.43737l1.1455 0.02082v-0.16662c0-0.13191-0.05554-0.18744-0.2777-0.26381-2.1174-0.74284-5.658-1.2149-12.357-1.6315-0.76366-0.0486-2.7075-0.09025-4.3182-0.09025-1.6176 0-2.9366-0.01386-2.9366-0.03472 0-0.02082-0.12496-0.8192-0.27769-1.7703-0.15273-0.95805-0.27769-1.7703-0.27769-1.805 0-0.04165 0.27075-0.11802 0.61092-0.16662 1.9092-0.27075 4.7694-0.88168 6.7063-1.4232 0.90251-0.25687 1.0483-0.31935 1.0691-0.44431 0.02776-0.19439-0.23604-0.32629-1.0622-0.53456-1.3815-0.35406-4.6792-0.76366-6.7827-0.84697-0.60398-0.02082-1.0969-0.06248-1.0969-0.09025 0-0.02776-0.17356-1.2496-0.38183-2.7145-0.81225-5.7483-1.2288-9.6499-1.4301-13.51l-0.09025-1.6176 0.34712-0.37489c0.18744-0.20827 0.74977-0.82614 1.2496-1.3746 2.4576-2.6728 4.1099-4.9569 5.297-7.3242 1.569-3.1379 2.2354-5.908 2.0272-8.4072-0.10414-1.1941-0.29158-1.93-0.70812-2.7631-0.49291-1.0066-0.98582-1.5273-1.8189-1.9369-0.69424-0.33324-1.0691-0.4096-1.6106-0.30547zm0.85391 2.9366c0.21522 0.11108 0.51374 0.42349 0.63176 0.64564 0.40266 0.79143 0.52068 2.9436 0.2291 4.3737-0.43043 2.1313-1.6662 4.7694-3.2976 7.0326-0.89556 1.2496-3.1379 3.9433-3.2143 3.8669-0.04165-0.04165 0.10413-2.4854 0.21521-3.6586 0.22215-2.2493 0.70812-4.8666 1.2566-6.7827 0.55538-1.9369 1.0344-3.0824 1.7286-4.1238 0.4582-0.6873 0.84003-1.0761 1.2843-1.3121 0.29158-0.15967 0.90251-0.1805 1.1663-0.041655zm-18.675 33.344c0.80532 7.1437 1.0691 11.406 0.92334 14.975-0.18744 4.5959-0.65953 7.0396-1.7009 8.8168-0.38183 0.64564-1.1385 1.444-1.7703 1.8606-0.47208 0.30546-0.54151 0.33324-0.93722 0.33324-0.52762 0-1.1316-0.15273-1.5967-0.40266-0.46514-0.24299-1.7356-1.5134-2.1382-2.1313-1.6662-2.5409-2.4368-6.0537-2.0341-9.1778 0.55539-4.2487 2.3674-7.6088 6.6994-12.448 1.0136-1.1316 2.3673-2.5687 2.4229-2.5687 0.02777 0 0.0833 0.33323 0.13191 0.74284z"/>
</svg>
